# xmcd
#
# Track frame offsets:
#	150
#	13620
#	25762
#	38312
#	53562
#	66715
#	82897
#	100922
#	113592
#	124210
#	139087
#	153792
#	166527
#	177642
#	191835
#	205067
#	216950
#	228872
#	240615
#	255122
#	268025
#	282362
#	294602
#	304747
#
# Disc length: 4231 seconds
#
# Revision: 0
# Processed by: cddbd v1.5.1PL2 Copyright (c) Steve Scherf et al.
# Submitted via: audiograbber 1.83.01
#
DISCID=44108518
DTITLE=циыяцос лаяцаяитгс  - ла ти кеы and о текеутаиос пуяетос
DYEAR=1994
DGENRE=каийа
TTITLE0=циыяцос лаяцаяитгс  - отам о еяытас йтупа 
TTITLE1=циыяцос лаяцаяитгс  - дем соу цуяеуы типота 
TTITLE2=циыяцос лаяцаяитгс  - ла ти кеы 
TTITLE3=циыяцос лаяцаяитгс  - лайаяи ма ле ацапацес 
TTITLE4=циыяцос лаяцаяитгс  - ам се васы 
TTITLE5=циыяцос лаяцаяитгс  - ои маутийои 
TTITLE6=циыяцос лаяцаяитгс  - баста йаядиа лоу 
TTITLE7=циыяцос лаяцаяитгс  - дем ле моиафеи 
TTITLE8=циыяцос лаяцаяитгс  - йаи ти ециме 
TTITLE9=циыяцос лаяцаяитгс  - дем йобы тис тяеккес лоу 
TTITLE10=циыяцос лаяцаяитгс  - се диатафы йаядиа лоу 
TTITLE11=циыяцос лаяцаяитгс  - ам лоу кеиьеи о еяытас соу 
TTITLE12=циыяцос лаяцаяитгс  - о текеутаиос пеияаслос 
TTITLE13=циыяцос лаяцаяитгс  - еида та латиа соу йкаллема 
TTITLE14=циыяцос лаяцаяитгс  - дем еисаи есу 
TTITLE15=циыяцос лаяцаяитгс  - гяха циа лиа мувта 
TTITLE16=циыяцос лаяцаяитгс  - посо валгка ха песы 
TTITLE17=циыяцос лаяцаяитгс  - покка цакомиа соу дыса 
TTITLE18=циыяцос лаяцаяитгс  - еисаи то йати акко 
TTITLE19=циыяцос лаяцаяитгс  - асуко дыс лоу 
TTITLE20=циыяцос лаяцаяитгс  - ам дем ле тяеккамеис тыяа 
TTITLE21=циыяцос лаяцаяитгс  - то паяекхом дем сбгметаи 
TTITLE22=циыяцос лаяцаяитгс  - ле то дектио та жикиа 
TTITLE23=циыяцос лаяцаяитгс  - сам жукайг г ацйакиа соу 
EXTD=
EXTT0=
EXTT1=
EXTT2=
EXTT3=
EXTT4=
EXTT5=
EXTT6=
EXTT7=
EXTT8=
EXTT9=
EXTT10=
EXTT11=
EXTT12=
EXTT13=
EXTT14=
EXTT15=
EXTT16=
EXTT17=
EXTT18=
EXTT19=
EXTT20=
EXTT21=
EXTT22=
EXTT23=
PLAYORDER=
